<?xml version="1.0" encoding="utf-8"?>
<!-- Generator: Adobe Illustrator 16.0.0, SVG Export Plug-In . SVG Version: 6.00 Build 0)  -->
<!DOCTYPE svg PUBLIC "-//W3C//DTD SVG 1.1//EN" "http://www.w3.org/Graphics/SVG/1.1/DTD/svg11.dtd">
<svg version="1.1" id="Menu" xmlns="http://www.w3.org/2000/svg" xmlns:xlink="http://www.w3.org/1999/xlink" x="0px" y="0px"
	 width="128.975px" height="92.125px" viewBox="235.513 46.063 128.975 92.125"
	 enable-background="new 235.513 46.063 128.975 92.125" xml:space="preserve">
<path fill="#262020" d="M358.96,82.913H241.04c-5.085,0-5.527,4.118-5.527,9.212s0.442,9.213,5.527,9.213h117.92
	c5.085,0,5.527-4.118,5.527-9.213S364.045,82.913,358.96,82.913z M358.96,119.763H241.04c-5.085,0-5.527,4.118-5.527,9.212
	c0,5.095,0.442,9.213,5.527,9.213h117.92c5.085,0,5.527-4.118,5.527-9.213C364.487,123.881,364.045,119.763,358.96,119.763z
	 M241.04,64.487h117.92c5.085,0,5.527-4.118,5.527-9.212c0-5.094-0.442-9.212-5.527-9.212H241.04c-5.085,0-5.527,4.118-5.527,9.212
	C235.513,60.37,235.955,64.487,241.04,64.487z"/>
</svg>
